<svg xmlns="http://www.w3.org/2000/svg" viewBox="0 0 200 200" width="200" height="200">
  <defs>
    <clipPath id="tongue">
      <path d="M 42 28 Q 30 28 30 40 L 30 88 Q 30 158 100 160 Q 170 158 170 88 L 170 40 Q 170 28 158 28 Z"/>
    </clipPath>
    <radialGradient id="tongue-shade" cx="48%" cy="38%" r="65%" fx="48%" fy="35%">
      <stop offset="0%"   stop-color="#EA4335"/>
      <stop offset="70%"  stop-color="#EA4335"/>
      <stop offset="100%" stop-color="#c0291c"/>
    </radialGradient>
  </defs>
  <rect width="200" height="200" fill="white"/>
  <g transform="translate(100,105) scale(0.8) translate(-100,-96)" clip-path="url(#tongue)">
    <path d="M 42 28 Q 30 28 30 40 L 30 88 Q 30 158 100 160 Q 170 158 170 88 L 170 40 Q 170 28 158 28 Z" fill="url(#tongue-shade)"/>
    <rect x="42" y="43" width="116" height="6" rx="3" fill="white"/>
    <rect x="97.5" y="43" width="5" height="90" rx="2.5" fill="white"/>
  </g>
</svg>
