<svg xmlns="http://www.w3.org/2000/svg" viewBox="0 0 200 200" width="200" height="200">
  <rect width="200" height="200" fill="white"/>
  <!-- Pin centered: scale 0.351, translate(-20.4,-15.8) maps 686×659 content into ~168×170 area -->
  <g transform="translate(-20.4,-15.8) scale(0.351)">
    <defs>
      <clipPath id="pin-shape">
        <path d="M 343 88 C 231 88 148 171 148 283 C 148 340 174 384 210 421 L 343 572 L 476 421 C 512 384 538 340 538 283 C 538 171 455 88 343 88 Z"/>
      </clipPath>
      <radialGradient id="bevel" cx="38%" cy="30%" r="65%" gradientUnits="objectBoundingBox">
        <stop offset="0%"   stop-color="#FF7A6A" stop-opacity="0.55"/>
        <stop offset="100%" stop-color="#FF7A6A" stop-opacity="0"/>
      </radialGradient>
    </defs>
    <!-- Main pin body -->
    <path d="M 343 88 C 231 88 148 171 148 283 C 148 340 174 384 210 421 L 343 572 L 476 421 C 512 384 538 340 538 283 C 538 171 455 88 343 88 Z"
      fill="#DD4F41"/>
    <!-- Bevel highlight -->
    <path d="M 343 88 C 231 88 148 171 148 283 C 148 340 174 384 210 421 L 343 572 L 476 421 C 512 384 538 340 538 283 C 538 171 455 88 343 88 Z"
      fill="url(#bevel)"/>
    <!-- Shadow crescent -->
    <path d="M 420 105 C 460 130 500 180 515 240 C 528 290 520 340 500 383 L 420 470 L 343 572 L 476 421 C 512 384 538 340 538 283 C 538 200 492 130 420 105 Z"
      fill="#AE3E34" opacity="0.6" clip-path="url(#pin-shape)"/>
    <!-- Dark outline -->
    <path d="M 343 88 C 231 88 148 171 148 283 C 148 340 174 384 210 421 L 343 572 L 476 421 C 512 384 538 340 538 283 C 538 171 455 88 343 88 Z"
      fill="none" stroke="#1A0A08" stroke-width="12" stroke-linejoin="round"/>
    <!-- Heart fill -->
    <path d="M 343 350 C 310 325 263 303 263 268 C 263 242 282 226 305 226 C 319 226 331 233 343 248 C 355 233 367 226 381 226 C 404 226 423 242 423 268 C 423 303 376 325 343 350 Z"
      fill="white"/>
    <!-- Heart outline -->
    <path d="M 343 350 C 310 325 263 303 263 268 C 263 242 282 226 305 226 C 319 226 331 233 343 248 C 355 233 367 226 381 226 C 404 226 423 242 423 268 C 423 303 376 325 343 350 Z"
      fill="none" stroke="#1A0A08" stroke-width="10" stroke-linejoin="round"/>
  </g>
</svg>
